<svg width="149" height="223" viewBox="0 0 149 223" fill="none" xmlns="http://www.w3.org/2000/svg">
<g clip-path="url(#clip0_37_188)">
<path d="M149.44 128.761C158.779 128.761 166.35 121.19 166.35 111.851C166.35 102.512 158.779 94.9412 149.44 94.9412C140.101 94.9412 132.53 102.512 132.53 111.851C132.53 121.19 140.101 128.761 149.44 128.761Z" fill="#878787"/>
<path d="M149.44 151.411C125.65 151.411 104.8 148.591 89.16 143.271C67.47 135.841 54 123.811 54 111.851C54 100.341 66.47 89.1112 87.37 81.8012C104.37 75.8912 126.37 72.6412 149.44 72.6412C172.04 72.6412 193.79 75.8312 210.67 81.6412C232.09 89.0412 244.88 100.341 244.88 111.881C244.88 123.881 230.94 135.881 208.49 143.341C192.77 148.531 171.79 151.411 149.44 151.411ZM149.44 82.3612C127.77 82.3612 106.31 85.5012 90.57 90.9812C72.13 97.4312 63.72 106.331 63.72 111.851C63.72 118.031 73.54 127.641 92.3 134.061C106.94 139.061 126.7 141.681 149.44 141.681C170.78 141.681 190.67 138.981 205.44 134.081C225.86 127.331 235.15 117.831 235.15 111.851C235.15 106.311 226.5 97.3712 207.5 90.8512C191.62 85.3612 171 82.3612 149.44 82.3612Z" fill="#878787"/>
<path d="M111.09 197.001C107.779 197.074 104.507 196.266 101.61 194.661C91.61 188.911 88.11 172.481 92.25 150.731C95.61 133.111 103.8 112.391 115.31 92.3812C126.66 72.7312 140.31 55.4912 153.72 43.8212C170.82 28.9112 187 23.5012 197 29.2512C207.36 35.2512 210.84 53.3412 206.1 76.4812C202.75 92.7512 194.75 112.361 183.58 131.701C171.66 152.321 158.8 169.001 146.38 179.851C133.68 191.001 121 197.001 111.09 197.001ZM123.74 97.2112C112.91 116.001 104.92 136.181 101.8 152.511C98.15 171.701 101.66 183.431 106.46 186.191C111.82 189.291 125.06 185.571 139.98 172.521C151.6 162.341 163.76 146.521 175.15 126.831C185.81 108.371 193.42 89.8312 196.56 74.5112C200.87 53.5112 197.28 40.6512 192.12 37.6612C187.33 34.9012 175.26 37.9312 160.12 51.1112C147.5 62.1112 134.58 78.4612 123.75 97.2012L123.74 97.2112Z" fill='#878787'/>
<path d="M187.8 197.001C178.41 197.001 166.59 191.401 154.35 180.861C140.8 169.201 126.95 151.771 115.35 131.781C104 112.151 95.88 91.7312 92.46 74.2512C88.12 52.0112 91.46 35.2512 101.46 29.4912C111.85 23.4912 129.26 29.4912 146.91 45.1912C159.33 56.1912 172.32 72.9311 183.5 92.2711C195.5 112.951 203.5 132.411 206.63 148.541C211.08 171.031 207.41 188.721 197.04 194.681C194.219 196.256 191.031 197.056 187.8 197.001V197.001ZM123.8 126.901C134.7 145.701 148.16 162.681 160.73 173.491C175.51 186.231 187.45 189.051 192.25 186.261C197.6 183.181 201 169.881 197.15 150.431C194.15 135.341 186.58 116.911 175.15 97.1512C164.49 78.6812 152.15 62.8212 140.52 52.4712C125.15 38.8212 111.72 34.8312 106.37 37.9112C101.57 40.6912 98.16 52.6712 102 72.3912C105.22 88.8312 113 108.191 123.77 126.901H123.8Z" fill="#878787"/>
</g>
<defs>
<clipPath id="clip0_37_188">
<rect width="149" height="223" fill="#2d3037"/>
</clipPath>
</defs>
</svg>
